<svg width="953" height="272" viewBox="0 0 953 272" fill="none" xmlns="http://www.w3.org/2000/svg">
<path d="M136.28 4.09L217.95 4L80.9301 140.95L45.2201 176.46L4.59009 135.78L136.28 4.09ZM135.52 126.37C136.58 124.97 138.53 125.66 140.01 125.48L217.88 125.5L146.91 196.4L106.07 155.81L135.52 126.37Z" fill="#44D1FD"/>
<path d="M65.3601 196.47L106.07 155.81L146.91 196.4L147.08 196.58L106.08 237.2L65.3601 196.47Z" fill="#1FBCFD"/>
<path d="M106.08 237.2L147.08 196.58L217.91 267.48C191.23 267.54 164.56 267.46 137.89 267.52C136.37 267.86 135.43 266.47 134.46 265.61L106.08 237.2Z" fill="#08589C"/>
<path d="M462.381 63.5455V209H442.21L368.276 102.324H366.926V209H344.98V63.5455H365.293L439.298 170.364H440.648V63.5455H462.381ZM539.707 211.202C528.959 211.202 519.702 208.905 511.937 204.312C504.219 199.672 498.253 193.162 494.039 184.781C489.872 176.353 487.789 166.481 487.789 155.165C487.789 143.991 489.872 134.142 494.039 125.619C498.253 117.097 504.124 110.444 511.653 105.662C519.228 100.88 528.083 98.4886 538.215 98.4886C544.371 98.4886 550.336 99.5066 556.113 101.543C561.889 103.579 567.074 106.775 571.667 111.131C576.26 115.487 579.882 121.145 582.533 128.105C585.185 135.018 586.511 143.422 586.511 153.318V160.847H499.792V144.938H565.701C565.701 139.35 564.565 134.402 562.292 130.094C560.019 125.738 556.823 122.305 552.704 119.795C548.632 117.286 543.85 116.031 538.357 116.031C532.391 116.031 527.183 117.499 522.732 120.435C518.329 123.323 514.92 127.111 512.505 131.798C510.138 136.438 508.954 141.481 508.954 146.926V159.355C508.954 166.647 510.232 172.849 512.789 177.963C515.393 183.077 519.015 186.983 523.656 189.682C528.296 192.333 533.717 193.659 539.92 193.659C543.944 193.659 547.614 193.091 550.928 191.955C554.243 190.771 557.107 189.019 559.522 186.699C561.937 184.379 563.783 181.514 565.062 178.105L585.161 181.727C583.551 187.646 580.663 192.83 576.496 197.281C572.377 201.685 567.192 205.117 560.942 207.58C554.74 209.994 547.661 211.202 539.707 211.202ZM633.528 209L601.425 99.9091H623.371L644.749 180.023H645.815L667.263 99.9091H689.21L710.516 179.668H711.582L732.817 99.9091H754.763L722.732 209H701.07L678.911 130.236H677.278L655.119 209H633.528ZM856.663 126.543L837.416 129.952C836.611 127.49 835.333 125.146 833.581 122.92C831.876 120.695 829.556 118.872 826.621 117.452C823.685 116.031 820.016 115.321 815.612 115.321C809.599 115.321 804.58 116.67 800.555 119.369C796.531 122.021 794.518 125.454 794.518 129.668C794.518 133.313 795.868 136.249 798.567 138.474C801.266 140.7 805.622 142.523 811.635 143.943L828.964 147.92C839.002 150.241 846.483 153.815 851.408 158.645C856.332 163.474 858.794 169.748 858.794 177.466C858.794 184 856.9 189.824 853.112 194.938C849.372 200.004 844.14 203.981 837.416 206.869C830.74 209.758 822.999 211.202 814.192 211.202C801.976 211.202 792.009 208.598 784.291 203.389C776.573 198.134 771.839 190.676 770.087 181.017L790.612 177.892C791.891 183.242 794.518 187.291 798.496 190.037C802.473 192.736 807.658 194.085 814.05 194.085C821.01 194.085 826.573 192.641 830.74 189.753C834.907 186.817 836.99 183.242 836.99 179.028C836.99 175.619 835.712 172.755 833.155 170.435C830.645 168.115 826.786 166.363 821.578 165.179L803.112 161.131C792.932 158.811 785.404 155.117 780.527 150.051C775.697 144.985 773.283 138.569 773.283 130.804C773.283 124.365 775.082 118.73 778.68 113.901C782.279 109.071 787.25 105.307 793.595 102.608C799.94 99.8617 807.208 98.4886 815.399 98.4886C827.189 98.4886 836.469 101.045 843.24 106.159C850.011 111.225 854.485 118.02 856.663 126.543Z" fill="#707070"/>
</svg>
